<mxfile host="Electron" agent="Mozilla/5.0 (X11; Linux x86_64) AppleWebKit/537.36 (KHTML, like Gecko) draw.io/24.7.17 Chrome/128.0.6613.36 Electron/32.0.1 Safari/537.36" version="24.7.17">
  <diagram name="Page-1" id="DGNW1rHfS38gisNH-Uh0">
    <mxGraphModel dx="1595" dy="1101" grid="0" gridSize="10" guides="1" tooltips="1" connect="1" arrows="1" fold="1" page="0" pageScale="1" pageWidth="850" pageHeight="1100" math="0" shadow="0">
      <root>
        <mxCell id="0" />
        <mxCell id="1" parent="0" />
        <mxCell id="jN5KkNx6AQ7iQkwdEgFy-1" value=":Interface" style="shape=umlLifeline;perimeter=lifelinePerimeter;whiteSpace=wrap;html=1;container=0;dropTarget=0;collapsible=0;recursiveResize=0;outlineConnect=0;portConstraint=eastwest;newEdgeStyle={&quot;edgeStyle&quot;:&quot;elbowEdgeStyle&quot;,&quot;elbow&quot;:&quot;vertical&quot;,&quot;curved&quot;:0,&quot;rounded&quot;:0};" parent="1" vertex="1">
          <mxGeometry x="-36" y="-36" width="100" height="489" as="geometry" />
        </mxCell>
        <mxCell id="jN5KkNx6AQ7iQkwdEgFy-2" value="" style="html=1;points=[];perimeter=orthogonalPerimeter;outlineConnect=0;targetShapes=umlLifeline;portConstraint=eastwest;newEdgeStyle={&quot;edgeStyle&quot;:&quot;elbowEdgeStyle&quot;,&quot;elbow&quot;:&quot;vertical&quot;,&quot;curved&quot;:0,&quot;rounded&quot;:0};" parent="jN5KkNx6AQ7iQkwdEgFy-1" vertex="1">
          <mxGeometry x="45" y="99" width="10" height="356" as="geometry" />
        </mxCell>
        <mxCell id="jN5KkNx6AQ7iQkwdEgFy-3" value="" style="endArrow=none;dashed=1;html=1;rounded=0;" parent="1" edge="1">
          <mxGeometry width="50" height="50" relative="1" as="geometry">
            <mxPoint x="-142" y="448" as="sourcePoint" />
            <mxPoint x="-142" y="26" as="targetPoint" />
          </mxGeometry>
        </mxCell>
        <mxCell id="jN5KkNx6AQ7iQkwdEgFy-4" value="Usuário" style="shape=umlActor;verticalLabelPosition=bottom;verticalAlign=top;html=1;outlineConnect=0;" parent="1" vertex="1">
          <mxGeometry x="-157" y="-53" width="30" height="60" as="geometry" />
        </mxCell>
        <mxCell id="jN5KkNx6AQ7iQkwdEgFy-5" value="" style="rounded=0;whiteSpace=wrap;html=1;" parent="1" vertex="1">
          <mxGeometry x="-147" y="52" width="10" height="376" as="geometry" />
        </mxCell>
        <mxCell id="jN5KkNx6AQ7iQkwdEgFy-6" value="" style="endArrow=classic;html=1;rounded=0;fontSize=12;startSize=8;endSize=8;curved=1;" parent="1" target="jN5KkNx6AQ7iQkwdEgFy-2" edge="1">
          <mxGeometry width="50" height="50" relative="1" as="geometry">
            <mxPoint x="-137" y="70" as="sourcePoint" />
            <mxPoint x="-87" y="20" as="targetPoint" />
          </mxGeometry>
        </mxCell>
        <mxCell id="jN5KkNx6AQ7iQkwdEgFy-7" value="seleciona opção &quot;visualizar&lt;div&gt;sugestões de compra e venda&lt;/div&gt;&lt;div&gt;de ações&quot;&lt;/div&gt;" style="edgeLabel;html=1;align=center;verticalAlign=middle;resizable=0;points=[];fontSize=10;" parent="jN5KkNx6AQ7iQkwdEgFy-6" vertex="1" connectable="0">
          <mxGeometry x="0.5382" y="2" relative="1" as="geometry">
            <mxPoint x="-40" y="26" as="offset" />
          </mxGeometry>
        </mxCell>
        <mxCell id="jN5KkNx6AQ7iQkwdEgFy-8" value="[se logado e na tela de carteira]" style="text;html=1;align=center;verticalAlign=middle;whiteSpace=wrap;rounded=0;fontSize=10;" parent="1" vertex="1">
          <mxGeometry x="-111" y="39" width="87" height="30" as="geometry" />
        </mxCell>
        <mxCell id="jN5KkNx6AQ7iQkwdEgFy-27" value="" style="endArrow=open;html=1;rounded=0;fontSize=12;startSize=8;endSize=8;curved=1;endFill=0;dashed=1;" parent="1" edge="1">
          <mxGeometry width="50" height="50" relative="1" as="geometry">
            <mxPoint x="9" y="408" as="sourcePoint" />
            <mxPoint x="-135" y="408" as="targetPoint" />
          </mxGeometry>
        </mxCell>
        <mxCell id="jN5KkNx6AQ7iQkwdEgFy-28" value="exibe sugestões&lt;div&gt;personalizadas ao usuário&lt;/div&gt;" style="edgeLabel;html=1;align=center;verticalAlign=middle;resizable=0;points=[];fontSize=10;" parent="jN5KkNx6AQ7iQkwdEgFy-27" vertex="1" connectable="0">
          <mxGeometry x="0.0815" relative="1" as="geometry">
            <mxPoint x="9" y="-15" as="offset" />
          </mxGeometry>
        </mxCell>
        <mxCell id="jN5KkNx6AQ7iQkwdEgFy-29" value="UC-22&lt;div&gt;Visualizar sugestões&lt;/div&gt;&lt;div&gt;de compra e venda&lt;/div&gt;&lt;div&gt;de ações&lt;/div&gt;" style="strokeWidth=2;html=1;shape=mxgraph.flowchart.start_1;whiteSpace=wrap;" parent="1" vertex="1">
          <mxGeometry x="191" y="-159" width="134" height="83" as="geometry" />
        </mxCell>
        <mxCell id="vRPOagE3gj7PJouClpxD-1" value=":APIB3" style="shape=umlLifeline;perimeter=lifelinePerimeter;whiteSpace=wrap;html=1;container=1;dropTarget=0;collapsible=0;recursiveResize=0;outlineConnect=0;portConstraint=eastwest;newEdgeStyle={&quot;curved&quot;:0,&quot;rounded&quot;:0};" vertex="1" parent="1">
          <mxGeometry x="275" y="-37" width="130" height="487" as="geometry" />
        </mxCell>
        <mxCell id="vRPOagE3gj7PJouClpxD-2" value="" style="html=1;points=[[0,0,0,0,5],[0,1,0,0,-5],[1,0,0,0,5],[1,1,0,0,-5]];perimeter=orthogonalPerimeter;outlineConnect=0;targetShapes=umlLifeline;portConstraint=eastwest;newEdgeStyle={&quot;curved&quot;:0,&quot;rounded&quot;:0};" vertex="1" parent="vRPOagE3gj7PJouClpxD-1">
          <mxGeometry x="61" y="149" width="9" height="45" as="geometry" />
        </mxCell>
        <mxCell id="vRPOagE3gj7PJouClpxD-39" value="" style="html=1;points=[[0,0,0,0,5],[0,1,0,0,-5],[1,0,0,0,5],[1,1,0,0,-5]];perimeter=orthogonalPerimeter;outlineConnect=0;targetShapes=umlLifeline;portConstraint=eastwest;newEdgeStyle={&quot;curved&quot;:0,&quot;rounded&quot;:0};" vertex="1" parent="vRPOagE3gj7PJouClpxD-1">
          <mxGeometry x="61" y="272.5" width="9" height="45" as="geometry" />
        </mxCell>
        <mxCell id="vRPOagE3gj7PJouClpxD-4" value="" style="endArrow=none;dashed=1;html=1;rounded=0;" edge="1" parent="1" source="vRPOagE3gj7PJouClpxD-37">
          <mxGeometry width="50" height="50" relative="1" as="geometry">
            <mxPoint x="502" y="370" as="sourcePoint" />
            <mxPoint x="503" y="35" as="targetPoint" />
          </mxGeometry>
        </mxCell>
        <mxCell id="vRPOagE3gj7PJouClpxD-5" value="" style="html=1;points=[[0,0,0,0,5],[0,1,0,0,-5],[1,0,0,0,5],[1,1,0,0,-5]];perimeter=orthogonalPerimeter;outlineConnect=0;targetShapes=umlLifeline;portConstraint=eastwest;newEdgeStyle={&quot;curved&quot;:0,&quot;rounded&quot;:0};" vertex="1" parent="1">
          <mxGeometry x="498" y="124" width="10" height="20" as="geometry" />
        </mxCell>
        <mxCell id="vRPOagE3gj7PJouClpxD-6" value="API B3" style="shape=umlActor;verticalLabelPosition=bottom;verticalAlign=top;html=1;" vertex="1" parent="1">
          <mxGeometry x="486" y="-57" width="30" height="60" as="geometry" />
        </mxCell>
        <mxCell id="vRPOagE3gj7PJouClpxD-7" value=":ModuloAnaliseMercado" style="shape=umlLifeline;perimeter=lifelinePerimeter;whiteSpace=wrap;html=1;container=1;dropTarget=0;collapsible=0;recursiveResize=0;outlineConnect=0;portConstraint=eastwest;newEdgeStyle={&quot;curved&quot;:0,&quot;rounded&quot;:0};" vertex="1" parent="1">
          <mxGeometry x="90" y="-36" width="155" height="487" as="geometry" />
        </mxCell>
        <mxCell id="vRPOagE3gj7PJouClpxD-8" value="" style="html=1;points=[[0,0,0,0,5],[0,1,0,0,-5],[1,0,0,0,5],[1,1,0,0,-5]];perimeter=orthogonalPerimeter;outlineConnect=0;targetShapes=umlLifeline;portConstraint=eastwest;newEdgeStyle={&quot;curved&quot;:0,&quot;rounded&quot;:0};" vertex="1" parent="vRPOagE3gj7PJouClpxD-7">
          <mxGeometry x="73" y="113" width="9" height="326" as="geometry" />
        </mxCell>
        <mxCell id="vRPOagE3gj7PJouClpxD-11" value="&lt;span style=&quot;color: rgba(0, 0, 0, 0); font-family: monospace; font-size: 0px; text-align: start;&quot;&gt;%3CmxGraphModel%3E%3Croot%3E%3CmxCell%20id%3D%220%22%2F%3E%3CmxCell%20id%3D%221%22%20parent%3D%220%22%2F%3E%3CmxCell%20id%3D%222%22%20value%3D%22%26lt%3Bfont%20style%3D%26quot%3Bfont-size%3A%209px%3B%26quot%3B%26gt%3B%5Bse%20n%C3%A3o%20houve%26lt%3B%2Ffont%26gt%3B%26lt%3Bdiv%20style%3D%26quot%3Bfont-size%3A%209px%3B%26quot%3B%26gt%3B%26lt%3Bfont%20style%3D%26quot%3Bfont-size%3A%209px%3B%26quot%3B%26gt%3Berro%5D%26lt%3B%2Ffont%26gt%3B%26lt%3B%2Fdiv%26gt%3B%22%20style%3D%22text%3Bhtml%3D1%3Balign%3Dcenter%3BverticalAlign%3Dmiddle%3Bresizable%3D0%3Bpoints%3D%5B%5D%3Bautosize%3D1%3BstrokeColor%3Dnone%3BfillColor%3Dnone%3BfontSize%3D9%3B%22%20vertex%3D%221%22%20parent%3D%221%22%3E%3CmxGeometry%20x%3D%22438%22%20y%3D%22306%22%20width%3D%2275%22%20height%3D%2234%22%20as%3D%22geometry%22%2F%3E%3C%2FmxCell%3E%3C%2Froot%3E%3C%2FmxGraphModel%3E&lt;/span&gt;" style="html=1;points=[];perimeter=orthogonalPerimeter;outlineConnect=0;targetShapes=umlLifeline;portConstraint=eastwest;newEdgeStyle={&quot;edgeStyle&quot;:&quot;elbowEdgeStyle&quot;,&quot;elbow&quot;:&quot;vertical&quot;,&quot;curved&quot;:0,&quot;rounded&quot;:0};" vertex="1" parent="vRPOagE3gj7PJouClpxD-7">
          <mxGeometry x="78" y="347" width="10" height="18" as="geometry" />
        </mxCell>
        <mxCell id="vRPOagE3gj7PJouClpxD-12" value="" style="endArrow=classic;html=1;rounded=0;fontSize=12;startSize=8;endSize=8;curved=1;" edge="1" parent="vRPOagE3gj7PJouClpxD-7">
          <mxGeometry width="50" height="50" relative="1" as="geometry">
            <mxPoint x="82.5" y="335" as="sourcePoint" />
            <mxPoint x="88.5" y="357" as="targetPoint" />
            <Array as="points">
              <mxPoint x="124.5" y="340" />
            </Array>
          </mxGeometry>
        </mxCell>
        <mxCell id="vRPOagE3gj7PJouClpxD-13" value="calcularVariação()" style="edgeLabel;html=1;align=center;verticalAlign=middle;resizable=0;points=[];fontSize=10;" vertex="1" connectable="0" parent="vRPOagE3gj7PJouClpxD-12">
          <mxGeometry x="0.4751" y="-4" relative="1" as="geometry">
            <mxPoint x="45" y="-1" as="offset" />
          </mxGeometry>
        </mxCell>
        <mxCell id="vRPOagE3gj7PJouClpxD-40" value="&lt;span style=&quot;color: rgba(0, 0, 0, 0); font-family: monospace; font-size: 0px; text-align: start;&quot;&gt;%3CmxGraphModel%3E%3Croot%3E%3CmxCell%20id%3D%220%22%2F%3E%3CmxCell%20id%3D%221%22%20parent%3D%220%22%2F%3E%3CmxCell%20id%3D%222%22%20value%3D%22%26lt%3Bfont%20style%3D%26quot%3Bfont-size%3A%209px%3B%26quot%3B%26gt%3B%5Bse%20n%C3%A3o%20houve%26lt%3B%2Ffont%26gt%3B%26lt%3Bdiv%20style%3D%26quot%3Bfont-size%3A%209px%3B%26quot%3B%26gt%3B%26lt%3Bfont%20style%3D%26quot%3Bfont-size%3A%209px%3B%26quot%3B%26gt%3Berro%5D%26lt%3B%2Ffont%26gt%3B%26lt%3B%2Fdiv%26gt%3B%22%20style%3D%22text%3Bhtml%3D1%3Balign%3Dcenter%3BverticalAlign%3Dmiddle%3Bresizable%3D0%3Bpoints%3D%5B%5D%3Bautosize%3D1%3BstrokeColor%3Dnone%3BfillColor%3Dnone%3BfontSize%3D9%3B%22%20vertex%3D%221%22%20parent%3D%221%22%3E%3CmxGeometry%20x%3D%22438%22%20y%3D%22306%22%20width%3D%2275%22%20height%3D%2234%22%20as%3D%22geometry%22%2F%3E%3C%2FmxCell%3E%3C%2Froot%3E%3C%2FmxGraphModel%3E&lt;/span&gt;" style="html=1;points=[];perimeter=orthogonalPerimeter;outlineConnect=0;targetShapes=umlLifeline;portConstraint=eastwest;newEdgeStyle={&quot;edgeStyle&quot;:&quot;elbowEdgeStyle&quot;,&quot;elbow&quot;:&quot;vertical&quot;,&quot;curved&quot;:0,&quot;rounded&quot;:0};" vertex="1" parent="vRPOagE3gj7PJouClpxD-7">
          <mxGeometry x="78" y="391" width="10" height="18" as="geometry" />
        </mxCell>
        <mxCell id="vRPOagE3gj7PJouClpxD-41" value="" style="endArrow=classic;html=1;rounded=0;fontSize=12;startSize=8;endSize=8;curved=1;" edge="1" parent="vRPOagE3gj7PJouClpxD-7">
          <mxGeometry width="50" height="50" relative="1" as="geometry">
            <mxPoint x="82.5" y="379" as="sourcePoint" />
            <mxPoint x="88.5" y="401" as="targetPoint" />
            <Array as="points">
              <mxPoint x="124.5" y="384" />
            </Array>
          </mxGeometry>
        </mxCell>
        <mxCell id="vRPOagE3gj7PJouClpxD-42" value="gerarSugestões()" style="edgeLabel;html=1;align=center;verticalAlign=middle;resizable=0;points=[];fontSize=10;" vertex="1" connectable="0" parent="vRPOagE3gj7PJouClpxD-41">
          <mxGeometry x="0.4751" y="-4" relative="1" as="geometry">
            <mxPoint x="45" y="-2" as="offset" />
          </mxGeometry>
        </mxCell>
        <mxCell id="vRPOagE3gj7PJouClpxD-9" value="" style="endArrow=classic;html=1;rounded=0;fontSize=12;startSize=8;endSize=8;curved=1;" edge="1" parent="1" target="vRPOagE3gj7PJouClpxD-8">
          <mxGeometry width="50" height="50" relative="1" as="geometry">
            <mxPoint x="19" y="79" as="sourcePoint" />
            <mxPoint x="69" y="29" as="targetPoint" />
          </mxGeometry>
        </mxCell>
        <mxCell id="vRPOagE3gj7PJouClpxD-10" value="getSugestoes()" style="edgeLabel;html=1;align=center;verticalAlign=middle;resizable=0;points=[];fontSize=10;" vertex="1" connectable="0" parent="vRPOagE3gj7PJouClpxD-9">
          <mxGeometry x="-0.0913" y="1" relative="1" as="geometry">
            <mxPoint x="6" y="-9" as="offset" />
          </mxGeometry>
        </mxCell>
        <mxCell id="vRPOagE3gj7PJouClpxD-14" value="" style="endArrow=classic;html=1;rounded=0;fontSize=12;startSize=8;endSize=8;curved=1;entryX=0;entryY=0;entryDx=0;entryDy=5;entryPerimeter=0;" edge="1" parent="1" source="vRPOagE3gj7PJouClpxD-8" target="vRPOagE3gj7PJouClpxD-2">
          <mxGeometry width="50" height="50" relative="1" as="geometry">
            <mxPoint x="172" y="102" as="sourcePoint" />
            <mxPoint x="222" y="52" as="targetPoint" />
          </mxGeometry>
        </mxCell>
        <mxCell id="vRPOagE3gj7PJouClpxD-15" value="obterNoticiasMercado()" style="edgeLabel;html=1;align=center;verticalAlign=middle;resizable=0;points=[];fontSize=10;" vertex="1" connectable="0" parent="vRPOagE3gj7PJouClpxD-14">
          <mxGeometry x="-0.0738" y="2" relative="1" as="geometry">
            <mxPoint y="-6" as="offset" />
          </mxGeometry>
        </mxCell>
        <mxCell id="vRPOagE3gj7PJouClpxD-16" value="" style="endArrow=classic;html=1;rounded=0;fontSize=12;startSize=8;endSize=8;curved=1;entryX=0;entryY=0;entryDx=0;entryDy=0;entryPerimeter=0;" edge="1" parent="1" target="vRPOagE3gj7PJouClpxD-5">
          <mxGeometry width="50" height="50" relative="1" as="geometry">
            <mxPoint x="345" y="124" as="sourcePoint" />
            <mxPoint x="395" y="74" as="targetPoint" />
          </mxGeometry>
        </mxCell>
        <mxCell id="vRPOagE3gj7PJouClpxD-17" value="&lt;font style=&quot;font-size: 10px;&quot;&gt;requisita noticias do mercado&lt;/font&gt;" style="edgeLabel;html=1;align=center;verticalAlign=middle;resizable=0;points=[];fontSize=12;" vertex="1" connectable="0" parent="vRPOagE3gj7PJouClpxD-16">
          <mxGeometry x="-0.009" y="1" relative="1" as="geometry">
            <mxPoint x="-1" y="-9" as="offset" />
          </mxGeometry>
        </mxCell>
        <mxCell id="vRPOagE3gj7PJouClpxD-18" value="" style="endArrow=open;html=1;rounded=0;fontSize=12;startSize=8;endSize=8;curved=1;endFill=0;dashed=1;" edge="1" parent="1" target="vRPOagE3gj7PJouClpxD-2">
          <mxGeometry width="50" height="50" relative="1" as="geometry">
            <mxPoint x="498" y="144" as="sourcePoint" />
            <mxPoint x="548" y="94" as="targetPoint" />
          </mxGeometry>
        </mxCell>
        <mxCell id="vRPOagE3gj7PJouClpxD-19" value="&lt;font style=&quot;font-size: 10px;&quot;&gt;retorna noticias do mercado&lt;/font&gt;" style="edgeLabel;html=1;align=center;verticalAlign=middle;resizable=0;points=[];fontSize=12;" vertex="1" connectable="0" parent="1">
          <mxGeometry x="425.0042857142858" y="152" as="geometry" />
        </mxCell>
        <mxCell id="vRPOagE3gj7PJouClpxD-21" value="" style="endArrow=open;html=1;rounded=0;fontSize=12;startSize=8;endSize=8;curved=1;endFill=0;dashed=1;" edge="1" parent="1" target="vRPOagE3gj7PJouClpxD-8">
          <mxGeometry width="50" height="50" relative="1" as="geometry">
            <mxPoint x="336" y="152" as="sourcePoint" />
            <mxPoint x="183" y="152" as="targetPoint" />
          </mxGeometry>
        </mxCell>
        <mxCell id="vRPOagE3gj7PJouClpxD-22" value="noticias do mercado" style="edgeLabel;html=1;align=center;verticalAlign=middle;resizable=0;points=[];fontSize=9;" vertex="1" connectable="0" parent="vRPOagE3gj7PJouClpxD-21">
          <mxGeometry x="0.0528" relative="1" as="geometry">
            <mxPoint x="-2" y="7" as="offset" />
          </mxGeometry>
        </mxCell>
        <mxCell id="vRPOagE3gj7PJouClpxD-23" value="" style="endArrow=classic;html=1;rounded=0;fontSize=12;startSize=8;endSize=8;curved=1;" edge="1" parent="1">
          <mxGeometry width="50" height="50" relative="1" as="geometry">
            <mxPoint x="172" y="188" as="sourcePoint" />
            <mxPoint x="627" y="189" as="targetPoint" />
          </mxGeometry>
        </mxCell>
        <mxCell id="vRPOagE3gj7PJouClpxD-24" value="getCarteira()" style="edgeLabel;html=1;align=center;verticalAlign=middle;resizable=0;points=[];fontSize=10;" vertex="1" connectable="0" parent="vRPOagE3gj7PJouClpxD-23">
          <mxGeometry x="-0.0738" y="2" relative="1" as="geometry">
            <mxPoint x="-179" y="-7" as="offset" />
          </mxGeometry>
        </mxCell>
        <mxCell id="vRPOagE3gj7PJouClpxD-25" value=":Usuario" style="shape=umlLifeline;perimeter=lifelinePerimeter;whiteSpace=wrap;html=1;container=1;dropTarget=0;collapsible=0;recursiveResize=0;outlineConnect=0;portConstraint=eastwest;newEdgeStyle={&quot;curved&quot;:0,&quot;rounded&quot;:0};" vertex="1" parent="1">
          <mxGeometry x="568" y="-40" width="130" height="492" as="geometry" />
        </mxCell>
        <mxCell id="vRPOagE3gj7PJouClpxD-26" value="" style="html=1;points=[[0,0,0,0,5],[0,1,0,0,-5],[1,0,0,0,5],[1,1,0,0,-5]];perimeter=orthogonalPerimeter;outlineConnect=0;targetShapes=umlLifeline;portConstraint=eastwest;newEdgeStyle={&quot;curved&quot;:0,&quot;rounded&quot;:0};" vertex="1" parent="vRPOagE3gj7PJouClpxD-25">
          <mxGeometry x="60.5" y="227" width="9" height="24" as="geometry" />
        </mxCell>
        <mxCell id="vRPOagE3gj7PJouClpxD-27" value="" style="endArrow=open;html=1;rounded=0;fontSize=12;startSize=8;endSize=8;curved=1;endFill=0;dashed=1;" edge="1" parent="1" target="vRPOagE3gj7PJouClpxD-8">
          <mxGeometry width="50" height="50" relative="1" as="geometry">
            <mxPoint x="628" y="211" as="sourcePoint" />
            <mxPoint x="678" y="161" as="targetPoint" />
          </mxGeometry>
        </mxCell>
        <mxCell id="vRPOagE3gj7PJouClpxD-28" value="carteira" style="edgeLabel;html=1;align=center;verticalAlign=middle;resizable=0;points=[];fontSize=10;" vertex="1" connectable="0" parent="vRPOagE3gj7PJouClpxD-27">
          <mxGeometry x="-0.8787" y="-1" relative="1" as="geometry">
            <mxPoint y="8" as="offset" />
          </mxGeometry>
        </mxCell>
        <mxCell id="vRPOagE3gj7PJouClpxD-29" value="" style="endArrow=classic;html=1;rounded=0;fontSize=12;startSize=8;endSize=8;curved=1;entryX=0;entryY=0;entryDx=0;entryDy=5;entryPerimeter=0;" edge="1" parent="1">
          <mxGeometry width="50" height="50" relative="1" as="geometry">
            <mxPoint x="172" y="241" as="sourcePoint" />
            <mxPoint x="336" y="241" as="targetPoint" />
          </mxGeometry>
        </mxCell>
        <mxCell id="vRPOagE3gj7PJouClpxD-30" value="obterCotacaoAcao()" style="edgeLabel;html=1;align=center;verticalAlign=middle;resizable=0;points=[];fontSize=10;" vertex="1" connectable="0" parent="vRPOagE3gj7PJouClpxD-29">
          <mxGeometry x="-0.0738" y="2" relative="1" as="geometry">
            <mxPoint y="-6" as="offset" />
          </mxGeometry>
        </mxCell>
        <mxCell id="vRPOagE3gj7PJouClpxD-31" value="" style="endArrow=classic;html=1;rounded=0;fontSize=12;startSize=8;endSize=8;curved=1;entryX=0;entryY=0;entryDx=0;entryDy=0;entryPerimeter=0;" edge="1" parent="1">
          <mxGeometry width="50" height="50" relative="1" as="geometry">
            <mxPoint x="345" y="248" as="sourcePoint" />
            <mxPoint x="498" y="248" as="targetPoint" />
          </mxGeometry>
        </mxCell>
        <mxCell id="vRPOagE3gj7PJouClpxD-32" value="&lt;font style=&quot;font-size: 10px;&quot;&gt;requisita cotação das ações&lt;/font&gt;" style="edgeLabel;html=1;align=center;verticalAlign=middle;resizable=0;points=[];fontSize=12;" vertex="1" connectable="0" parent="vRPOagE3gj7PJouClpxD-31">
          <mxGeometry x="-0.009" y="1" relative="1" as="geometry">
            <mxPoint x="-1" y="-9" as="offset" />
          </mxGeometry>
        </mxCell>
        <mxCell id="vRPOagE3gj7PJouClpxD-33" value="" style="endArrow=open;html=1;rounded=0;fontSize=12;startSize=8;endSize=8;curved=1;endFill=0;dashed=1;" edge="1" parent="1">
          <mxGeometry width="50" height="50" relative="1" as="geometry">
            <mxPoint x="498" y="268" as="sourcePoint" />
            <mxPoint x="345" y="268" as="targetPoint" />
          </mxGeometry>
        </mxCell>
        <mxCell id="vRPOagE3gj7PJouClpxD-34" value="&lt;font style=&quot;font-size: 10px;&quot;&gt;retorna cotação das ações&lt;/font&gt;" style="edgeLabel;html=1;align=center;verticalAlign=middle;resizable=0;points=[];fontSize=12;" vertex="1" connectable="0" parent="1">
          <mxGeometry x="422.0042857142858" y="280" as="geometry">
            <mxPoint x="2" y="-4" as="offset" />
          </mxGeometry>
        </mxCell>
        <mxCell id="vRPOagE3gj7PJouClpxD-35" value="" style="endArrow=open;html=1;rounded=0;fontSize=12;startSize=8;endSize=8;curved=1;endFill=0;dashed=1;" edge="1" parent="1">
          <mxGeometry width="50" height="50" relative="1" as="geometry">
            <mxPoint x="336" y="276" as="sourcePoint" />
            <mxPoint x="172" y="276" as="targetPoint" />
          </mxGeometry>
        </mxCell>
        <mxCell id="vRPOagE3gj7PJouClpxD-36" value="cotação das ações" style="edgeLabel;html=1;align=center;verticalAlign=middle;resizable=0;points=[];fontSize=9;" vertex="1" connectable="0" parent="vRPOagE3gj7PJouClpxD-35">
          <mxGeometry x="0.0528" relative="1" as="geometry">
            <mxPoint x="-2" y="7" as="offset" />
          </mxGeometry>
        </mxCell>
        <mxCell id="vRPOagE3gj7PJouClpxD-38" value="" style="endArrow=none;dashed=1;html=1;rounded=0;" edge="1" parent="1" target="vRPOagE3gj7PJouClpxD-37">
          <mxGeometry width="50" height="50" relative="1" as="geometry">
            <mxPoint x="502" y="453" as="sourcePoint" />
            <mxPoint x="503" y="35" as="targetPoint" />
          </mxGeometry>
        </mxCell>
        <mxCell id="vRPOagE3gj7PJouClpxD-37" value="" style="html=1;points=[[0,0,0,0,5],[0,1,0,0,-5],[1,0,0,0,5],[1,1,0,0,-5]];perimeter=orthogonalPerimeter;outlineConnect=0;targetShapes=umlLifeline;portConstraint=eastwest;newEdgeStyle={&quot;curved&quot;:0,&quot;rounded&quot;:0};" vertex="1" parent="1">
          <mxGeometry x="498" y="248" width="10" height="20" as="geometry" />
        </mxCell>
        <mxCell id="vRPOagE3gj7PJouClpxD-43" value="" style="endArrow=open;html=1;rounded=0;fontSize=12;startSize=8;endSize=8;curved=1;endFill=0;dashed=1;" edge="1" parent="1">
          <mxGeometry width="50" height="50" relative="1" as="geometry">
            <mxPoint x="163" y="392" as="sourcePoint" />
            <mxPoint x="19" y="392" as="targetPoint" />
          </mxGeometry>
        </mxCell>
        <mxCell id="vRPOagE3gj7PJouClpxD-44" value="retorna sugestões de compra&lt;div&gt;e venda&lt;/div&gt;" style="edgeLabel;html=1;align=center;verticalAlign=middle;resizable=0;points=[];fontSize=10;" vertex="1" connectable="0" parent="vRPOagE3gj7PJouClpxD-43">
          <mxGeometry x="0.0815" relative="1" as="geometry">
            <mxPoint x="8" y="-19" as="offset" />
          </mxGeometry>
        </mxCell>
      </root>
    </mxGraphModel>
  </diagram>
</mxfile>
